<svg width="400" height="300" xmlns="http://www.w3.org/2000/svg">
  <!-- Bicycle Frame -->
  <path d="M100 200 L150 150 L200 150 L250 200" stroke="black" stroke-width="3" fill="none"/>
  <path d="M150 150 L175 125" stroke="black" stroke-width="3" fill="none"/>
  <path d="M200 150 L225 125" stroke="black" stroke-width="3" fill="none"/>
  
  <!-- Wheels -->
  <circle cx="150" cy="200" r="30" stroke="black" stroke-width="3" fill="none"/>
  <circle cx="250" cy="200" r="30" stroke="black" stroke-width="3" fill="none"/>
  <circle cx="150" cy="200" r="5" fill="black"/>
  <circle cx="250" cy="200" r="5" fill="black"/>
  
  <!-- Spokes -->
  <line x1="150" y1="170" x2="150" y2="230" stroke="black" stroke-width="1"/>
  <line x1="120" y1="200" x2="180" y2="200" stroke="black" stroke-width="1"/>
  <line x1="250" y1="170" x2="250" y2="230" stroke="black" stroke-width="1"/>
  <line x1="220" y1="200" x2="280" y2="200" stroke="black" stroke-width="1"/>
  
  <!-- Seat -->
  <rect x="170" y="140" width="20" height="5" fill="brown"/>
  
  <!-- Handlebars -->
  <circle cx="100" cy="150" r="5" fill="black"/>
  <line x1="100" y1="150" x2="120" y2="150" stroke="black" stroke-width="3"/>
  
  <!-- Pelican Body -->
  <ellipse cx="175" cy="130" rx="25" ry="20" fill="white" stroke="black" stroke-width="2"/>
  
  <!-- Pelican Head -->
  <ellipse cx="155" cy="115" rx="15" ry="12" fill="white" stroke="black" stroke-width="2"/>
  
  <!-- Pelican Beak -->
  <path d="M140 115 L120 110 L120 120 Z" fill="orange" stroke="black" stroke-width="1"/>
  
  <!-- Pelican Eye -->
  <circle cx="160" cy="110" r="3" fill="black"/>
  
  <!-- Pelican Wings -->
  <ellipse cx="175" cy="125" rx="15" ry="8" fill="gray" stroke="black" stroke-width="1"/>
  
  <!-- Pelican Legs -->
  <line x1="165" y1="150" x2="165" y2="170" stroke="orange" stroke-width="3"/>
  <line x1="185" y1="150" x2="185" y2="170" stroke="orange" stroke-width="3"/>
  
  <!-- Pedals -->
  <circle cx="165" cy="170" r="3" fill="black"/>
  <circle cx="185" cy="170" r="3" fill="black"/>
  
  <!-- Ground -->
  <line x1="0" y1="230" x2="400" y2="230" stroke="green" stroke-width="5"/>
</svg>