<svg width="48" height="48" viewBox="0 0 48 48" fill="none" xmlns="http://www.w3.org/2000/svg">
<path d="M0 24C0 10.7452 10.7452 0 24 0C37.2548 0 48 10.7452 48 24C48 37.2548 37.2548 48 24 48C10.7452 48 0 37.2548 0 24Z" fill="#000000"/>
<path d="M28.0566 20.3418L35.6406 11.5H33.8906L27.2734 19.2168L21.9668 11.5H15.5L23.4785 26.625L15.5 35.9414H17.25L24.2598 27.75L29.9082 35.9414H36.375L28.0566 20.3418ZM25.1426 26.7363L24.3633 25.6172L18.1426 12.8125H21.1387L26.127 23.8359L26.9062 24.9551L33.8906 34.6875H30.8945L25.1426 26.7363Z" fill="white"/>
</svg>